<?xml version="1.0" encoding="UTF-8"?>
<svg width="700pt" height="700pt" version="1.1" viewBox="0 0 700 700" xmlns="http://www.w3.org/2000/svg" xmlns:xlink="http://www.w3.org/1999/xlink">
 <defs>
  <symbol id="u" overflow="visible">
   <path d="m18.766-1.125c-0.96875 0.5-1.9805 0.875-3.0312 1.125-1.043 0.25781-2.1367 0.39062-3.2812 0.39062-3.3984 0-6.0898-0.94531-8.0781-2.8438-1.9922-1.9062-2.9844-4.4844-2.9844-7.7344 0-3.2578 0.99219-5.8359 2.9844-7.7344 1.9883-1.9062 4.6797-2.8594 8.0781-2.8594 1.1445 0 2.2383 0.13281 3.2812 0.39062 1.0508 0.25 2.0625 0.625 3.0312 1.125v4.2188c-0.98047-0.65625-1.9453-1.1406-2.8906-1.4531-0.94922-0.3125-1.9492-0.46875-3-0.46875-1.875 0-3.3516 0.60547-4.4219 1.8125-1.0742 1.1992-1.6094 2.8555-1.6094 4.9688 0 2.1055 0.53516 3.7617 1.6094 4.9688 1.0703 1.1992 2.5469 1.7969 4.4219 1.7969 1.0508 0 2.0508-0.14844 3-0.45312 0.94531-0.3125 1.9102-0.80078 2.8906-1.4688z"/>
  </symbol>
  <symbol id="b" overflow="visible">
   <path d="m13.734-11.141c-0.4375-0.19531-0.87109-0.34375-1.2969-0.4375-0.41797-0.10156-0.83984-0.15625-1.2656-0.15625-1.2617 0-2.2305 0.40625-2.9062 1.2188-0.67969 0.80469-1.0156 1.9531-1.0156 3.4531v7.0625h-4.8906v-15.312h4.8906v2.5156c0.625-1 1.3438-1.7266 2.1562-2.1875 0.82031-0.46875 1.8008-0.70312 2.9375-0.70312 0.16406 0 0.34375 0.011719 0.53125 0.03125 0.19531 0.011719 0.47656 0.039062 0.84375 0.078125z"/>
  </symbol>
  <symbol id="a" overflow="visible">
   <path d="m17.641-7.7031v1.4062h-11.453c0.125 1.1484 0.53906 2.0078 1.25 2.5781 0.70703 0.57422 1.7031 0.85938 2.9844 0.85938 1.0312 0 2.082-0.14844 3.1562-0.45312 1.082-0.3125 2.1914-0.77344 3.3281-1.3906v3.7656c-1.1562 0.4375-2.3125 0.76562-3.4688 0.98438-1.1562 0.22656-2.3125 0.34375-3.4688 0.34375-2.7734 0-4.9297-0.70312-6.4688-2.1094-1.5312-1.4062-2.2969-3.3789-2.2969-5.9219 0-2.5 0.75391-4.4609 2.2656-5.8906 1.5078-1.4375 3.582-2.1562 6.2188-2.1562 2.4062 0 4.332 0.73047 5.7812 2.1875 1.4453 1.4492 2.1719 3.3828 2.1719 5.7969zm-5.0312-1.625c0-0.92578-0.27344-1.6719-0.8125-2.2344-0.54297-0.57031-1.25-0.85938-2.125-0.85938-0.94922 0-1.7188 0.26562-2.3125 0.79688s-0.96484 1.2969-1.1094 2.2969z"/>
  </symbol>
  <symbol id="d" overflow="visible">
   <path d="m9.2188-6.8906c-1.0234 0-1.793 0.17188-2.3125 0.51562-0.51172 0.34375-0.76562 0.85547-0.76562 1.5312 0 0.625 0.20703 1.1172 0.625 1.4688 0.41406 0.34375 0.98828 0.51562 1.7188 0.51562 0.92578 0 1.7031-0.32812 2.3281-0.98438 0.63281-0.66406 0.95312-1.4922 0.95312-2.4844v-0.5625zm7.4688-1.8438v8.7344h-4.9219v-2.2656c-0.65625 0.92969-1.3984 1.6055-2.2188 2.0312-0.82422 0.41406-1.8242 0.625-3 0.625-1.5859 0-2.8711-0.45703-3.8594-1.375-0.99219-0.92578-1.4844-2.1289-1.4844-3.6094 0-1.7891 0.61328-3.1016 1.8438-3.9375 1.2383-0.84375 3.1797-1.2656 5.8281-1.2656h2.8906v-0.39062c0-0.76953-0.30859-1.332-0.92188-1.6875-0.61719-0.36328-1.5703-0.54688-2.8594-0.54688-1.0547 0-2.0312 0.10547-2.9375 0.3125-0.89844 0.21094-1.7305 0.52344-2.5 0.9375v-3.7344c1.0391-0.25 2.0859-0.44141 3.1406-0.57812 1.0625-0.13281 2.125-0.20312 3.1875-0.20312 2.7578 0 4.75 0.54688 5.9688 1.6406 1.2266 1.0859 1.8438 2.8555 1.8438 5.3125z"/>
  </symbol>
  <symbol id="c" overflow="visible">
   <path d="m7.7031-19.656v4.3438h5.0469v3.5h-5.0469v6.5c0 0.71094 0.14062 1.1875 0.42188 1.4375s0.83594 0.375 1.6719 0.375h2.5156v3.5h-4.1875c-1.9375 0-3.3125-0.39844-4.125-1.2031-0.80469-0.8125-1.2031-2.1797-1.2031-4.1094v-6.5h-2.4219v-3.5h2.4219v-4.3438z"/>
  </symbol>
  <symbol id="g" overflow="visible">
   <path d="m12.766-13.078v-8.2031h4.9219v21.281h-4.9219v-2.2188c-0.66797 0.90625-1.4062 1.5703-2.2188 1.9844s-1.7578 0.625-2.8281 0.625c-1.8867 0-3.4336-0.75-4.6406-2.25-1.2109-1.5-1.8125-3.4258-1.8125-5.7812 0-2.3633 0.60156-4.2969 1.8125-5.7969 1.207-1.5 2.7539-2.25 4.6406-2.25 1.0625 0 2 0.21484 2.8125 0.64062 0.82031 0.42969 1.5664 1.0859 2.2344 1.9688zm-3.2188 9.9219c1.0391 0 1.8359-0.37891 2.3906-1.1406 0.55078-0.76953 0.82812-1.8828 0.82812-3.3438 0-1.457-0.27734-2.5664-0.82812-3.3281-0.55469-0.76953-1.3516-1.1562-2.3906-1.1562-1.043 0-1.8398 0.38672-2.3906 1.1562-0.55469 0.76172-0.82812 1.8711-0.82812 3.3281 0 1.4609 0.27344 2.5742 0.82812 3.3438 0.55078 0.76172 1.3477 1.1406 2.3906 1.1406z"/>
  </symbol>
  <symbol id="m" overflow="visible">
   <path d="m10.5-3.1562c1.0508 0 1.8516-0.37891 2.4062-1.1406 0.55078-0.76953 0.82812-1.8828 0.82812-3.3438 0-1.457-0.27734-2.5664-0.82812-3.3281-0.55469-0.76953-1.3555-1.1562-2.4062-1.1562-1.0547 0-1.8594 0.38672-2.4219 1.1562-0.55469 0.77344-0.82812 1.8828-0.82812 3.3281 0 1.4492 0.27344 2.5586 0.82812 3.3281 0.5625 0.77344 1.3672 1.1562 2.4219 1.1562zm-3.25-9.9219c0.67578-0.88281 1.4219-1.5391 2.2344-1.9688 0.82031-0.42578 1.7656-0.64062 2.8281-0.64062 1.8945 0 3.4453 0.75 4.6562 2.25 1.207 1.5 1.8125 3.4336 1.8125 5.7969 0 2.3555-0.60547 4.2812-1.8125 5.7812-1.2109 1.5-2.7617 2.25-4.6562 2.25-1.0625 0-2.0078-0.21094-2.8281-0.625-0.8125-0.42578-1.5586-1.0859-2.2344-1.9844v2.2188h-4.8906v-21.281h4.8906z"/>
  </symbol>
  <symbol id="l" overflow="visible">
   <path d="m0.34375-15.312h4.8906l4.125 10.391 3.5-10.391h4.8906l-6.4375 16.766c-0.64844 1.6953-1.4023 2.8828-2.2656 3.5625-0.86719 0.6875-2 1.0312-3.4062 1.0312h-2.8438v-3.2188h1.5312c0.83203 0 1.4375-0.13672 1.8125-0.40625 0.38281-0.26172 0.67969-0.73047 0.89062-1.4062l0.14062-0.42188z"/>
  </symbol>
  <symbol id="k" overflow="visible">
   <path d="m2.5781-20.406h14.203v3.9688h-8.9531v3.7969h8.4219v3.9844h-8.4219v8.6562h-5.25z"/>
  </symbol>
  <symbol id="j" overflow="visible">
   <path d="m2.3594-15.312h4.8906v15.312h-4.8906zm0-5.9688h4.8906v4h-4.8906z"/>
  </symbol>
  <symbol id="i" overflow="visible">
   <path d="m14.719-14.828v3.9844c-0.65625-0.45703-1.3242-0.79688-2-1.0156-0.66797-0.21875-1.3594-0.32812-2.0781-0.32812-1.3672 0-2.4336 0.40234-3.2031 1.2031-0.76172 0.79297-1.1406 1.9062-1.1406 3.3438 0 1.4297 0.37891 2.543 1.1406 3.3438 0.76953 0.79297 1.8359 1.1875 3.2031 1.1875 0.75781 0 1.4844-0.10938 2.1719-0.32812 0.6875-0.22656 1.3203-0.56641 1.9062-1.0156v4c-0.76172 0.28125-1.5391 0.48828-2.3281 0.625-0.78125 0.14453-1.5742 0.21875-2.375 0.21875-2.7617 0-4.9219-0.70703-6.4844-2.125-1.5547-1.4141-2.3281-3.3828-2.3281-5.9062 0-2.5312 0.77344-4.5039 2.3281-5.9219 1.5625-1.4141 3.7227-2.125 6.4844-2.125 0.80078 0 1.5938 0.074219 2.375 0.21875 0.78125 0.13672 1.5547 0.35156 2.3281 0.64062z"/>
  </symbol>
  <symbol id="h" overflow="visible">
   <path d="m17.75-9.3281v9.3281h-4.9219v-7.1094c0-1.3438-0.03125-2.2656-0.09375-2.7656s-0.16797-0.86719-0.3125-1.1094c-0.1875-0.3125-0.44922-0.55469-0.78125-0.73438-0.32422-0.17578-0.69531-0.26562-1.1094-0.26562-1.0234 0-1.8242 0.39844-2.4062 1.1875-0.58594 0.78125-0.875 1.8711-0.875 3.2656v7.5312h-4.8906v-21.281h4.8906v8.2031c0.73828-0.88281 1.5195-1.5391 2.3438-1.9688 0.83203-0.42578 1.75-0.64062 2.75-0.64062 1.7695 0 3.1133 0.54688 4.0312 1.6406 0.91406 1.0859 1.375 2.6562 1.375 4.7188z"/>
  </symbol>
  <symbol id="t" overflow="visible">
   <path d="m16.781-19.766v4.3125c-1.125-0.5-2.2266-0.875-3.2969-1.125-1.0625-0.25781-2.0703-0.39062-3.0156-0.39062-1.25 0-2.1797 0.17969-2.7812 0.53125-0.60547 0.34375-0.90625 0.88281-0.90625 1.6094 0 0.54297 0.20312 0.96875 0.60938 1.2812 0.40625 0.30469 1.1406 0.5625 2.2031 0.78125l2.25 0.45312c2.2695 0.44922 3.8789 1.1406 4.8281 2.0781 0.95703 0.92969 1.4375 2.2461 1.4375 3.9531 0 2.25-0.66797 3.9297-2 5.0312-1.3359 1.0938-3.3711 1.6406-6.1094 1.6406-1.3047 0-2.6055-0.125-3.9062-0.375-1.3047-0.23828-2.6055-0.59766-3.9062-1.0781v-4.4531c1.3008 0.69922 2.5625 1.2266 3.7812 1.5781 1.2188 0.34375 2.3906 0.51562 3.5156 0.51562 1.1562 0 2.0352-0.1875 2.6406-0.5625 0.61328-0.38281 0.92188-0.9375 0.92188-1.6562 0-0.63281-0.21094-1.125-0.625-1.4688-0.41797-0.34375-1.2461-0.65625-2.4844-0.9375l-2.0312-0.4375c-2.043-0.4375-3.5391-1.1328-4.4844-2.0938-0.9375-0.95703-1.4062-2.25-1.4062-3.875 0-2.0312 0.65625-3.5938 1.9688-4.6875s3.1953-1.6406 5.6562-1.6406c1.125 0 2.2734 0.085938 3.4531 0.25 1.1875 0.16797 2.4141 0.42188 3.6875 0.76562z"/>
  </symbol>
  <symbol id="f" overflow="visible">
   <path d="m17.75-9.3281v9.3281h-4.9219v-7.1406c0-1.3203-0.03125-2.2344-0.09375-2.7344s-0.16797-0.86719-0.3125-1.1094c-0.1875-0.3125-0.44922-0.55469-0.78125-0.73438-0.32422-0.17578-0.69531-0.26562-1.1094-0.26562-1.0234 0-1.8242 0.39844-2.4062 1.1875-0.58594 0.78125-0.875 1.8711-0.875 3.2656v7.5312h-4.8906v-15.312h4.8906v2.2344c0.73828-0.88281 1.5195-1.5391 2.3438-1.9688 0.83203-0.42578 1.75-0.64062 2.75-0.64062 1.7695 0 3.1133 0.54688 4.0312 1.6406 0.91406 1.0859 1.375 2.6562 1.375 4.7188z"/>
  </symbol>
  <symbol id="s" overflow="visible">
   <path d="m12.422-21.281v3.2188h-2.7031c-0.6875 0-1.1719 0.125-1.4531 0.375-0.27344 0.25-0.40625 0.6875-0.40625 1.3125v1.0625h4.1875v3.5h-4.1875v11.812h-4.8906v-11.812h-2.4375v-3.5h2.4375v-1.0625c0-1.6641 0.46094-2.8984 1.3906-3.7031 0.92578-0.80078 2.3672-1.2031 4.3281-1.2031z"/>
  </symbol>
  <symbol id="e" overflow="visible">
   <path d="m9.6406-12.188c-1.0859 0-1.9141 0.39062-2.4844 1.1719-0.57422 0.78125-0.85938 1.9062-0.85938 3.375s0.28516 2.5938 0.85938 3.375c0.57031 0.77344 1.3984 1.1562 2.4844 1.1562 1.0625 0 1.875-0.38281 2.4375-1.1562 0.57031-0.78125 0.85938-1.9062 0.85938-3.375s-0.28906-2.5938-0.85938-3.375c-0.5625-0.78125-1.375-1.1719-2.4375-1.1719zm0-3.5c2.6328 0 4.6914 0.71484 6.1719 2.1406 1.4766 1.418 2.2188 3.3867 2.2188 5.9062 0 2.5117-0.74219 4.4805-2.2188 5.9062-1.4805 1.418-3.5391 2.125-6.1719 2.125-2.6484 0-4.7148-0.70703-6.2031-2.125-1.4922-1.4258-2.2344-3.3945-2.2344-5.9062 0-2.5195 0.74219-4.4883 2.2344-5.9062 1.4883-1.4258 3.5547-2.1406 6.2031-2.1406z"/>
  </symbol>
  <symbol id="r" overflow="visible">
   <path d="m16.547-12.766c0.61328-0.94531 1.3477-1.6719 2.2031-2.1719 0.85156-0.5 1.7891-0.75 2.8125-0.75 1.7578 0 3.0977 0.54688 4.0156 1.6406 0.92578 1.0859 1.3906 2.6562 1.3906 4.7188v9.3281h-4.9219v-7.9844-0.35938c0.007813-0.13281 0.015625-0.32031 0.015625-0.5625 0-1.082-0.16406-1.8633-0.48438-2.3438-0.3125-0.48828-0.82422-0.73438-1.5312-0.73438-0.92969 0-1.6484 0.38672-2.1562 1.1562-0.51172 0.76172-0.77344 1.8672-0.78125 3.3125v7.5156h-4.9219v-7.9844c0-1.6953-0.14844-2.7852-0.4375-3.2656-0.29297-0.48828-0.8125-0.73438-1.5625-0.73438-0.9375 0-1.6641 0.38672-2.1719 1.1562-0.51172 0.76172-0.76562 1.8594-0.76562 3.2969v7.5312h-4.9219v-15.312h4.9219v2.2344c0.60156-0.86328 1.2891-1.5156 2.0625-1.9531 0.78125-0.4375 1.6406-0.65625 2.5781-0.65625 1.0625 0 2 0.25781 2.8125 0.76562 0.8125 0.51172 1.4258 1.2305 1.8438 2.1562z"/>
  </symbol>
  <symbol id="q" overflow="visible">
   <path d="m2.5781-20.406h5.875l7.4219 14v-14h4.9844v20.406h-5.875l-7.4219-14v14h-4.9844z"/>
  </symbol>
  <symbol id="p" overflow="visible">
   <path d="m2.1875-5.9688v-9.3438h4.9219v1.5312c0 0.83594-0.007813 1.875-0.015625 3.125-0.011719 1.25-0.015625 2.0859-0.015625 2.5 0 1.2422 0.03125 2.1328 0.09375 2.6719 0.070313 0.54297 0.17969 0.93359 0.32812 1.1719 0.20703 0.32422 0.47266 0.57422 0.79688 0.75 0.32031 0.16797 0.69141 0.25 1.1094 0.25 1.0195 0 1.8203-0.39062 2.4062-1.1719 0.58203-0.78125 0.875-1.8672 0.875-3.2656v-7.5625h4.8906v15.312h-4.8906v-2.2188c-0.74219 0.89844-1.5234 1.5586-2.3438 1.9844-0.82422 0.41406-1.7344 0.625-2.7344 0.625-1.7617 0-3.1055-0.53906-4.0312-1.625-0.92969-1.082-1.3906-2.6602-1.3906-4.7344z"/>
  </symbol>
  <symbol id="o" overflow="visible">
   <path d="m2.5781-20.406h8.7344c2.5938 0 4.582 0.57812 5.9688 1.7344 1.3945 1.1484 2.0938 2.7891 2.0938 4.9219 0 2.1367-0.69922 3.7812-2.0938 4.9375-1.3867 1.1562-3.375 1.7344-5.9688 1.7344h-3.4844v7.0781h-5.25zm5.25 3.8125v5.7031h2.9219c1.0195 0 1.8047-0.25 2.3594-0.75 0.5625-0.5 0.84375-1.2031 0.84375-2.1094 0-0.91406-0.28125-1.6172-0.84375-2.1094-0.55469-0.48828-1.3398-0.73438-2.3594-0.73438z"/>
  </symbol>
  <symbol id="n" overflow="visible">
   <path d="m2.3594-15.312h4.8906v15.031c0 2.0508-0.49609 3.6172-1.4844 4.7031-0.98047 1.082-2.4062 1.625-4.2812 1.625h-2.4219v-3.2188h0.85938c0.92578 0 1.5625-0.21094 1.9062-0.625 0.35156-0.41797 0.53125-1.2461 0.53125-2.4844zm0-5.9688h4.8906v4h-4.8906z"/>
  </symbol>
 </defs>
 <g>
  <path d="m332.59 319.53c1.8984-3.3594 4.1719-2.1328 6.4531-1.5586 69.391 17.383 138.79 34.805 208.16 52.23 11.508 2.8828 23.016 5.7617 35.09 8.7852-1.2539-5.4883-3.9766-9.6211-5.4883-14.195-1.082-3.293-3.1523-4.832-6.5977-5.7773-79.012-21.605-157.98-43.34-236.96-65.078-6.2227-1.7188-5.0586-1.7578-8.0234 3.4453-16.832 29.668-33.633 59.367-50.445 89.047-5.3945 9.5312-10.781 19.066-16.457 29.086 10.875 1.3906 21.184 2.6836 31.477 4.0469 22.59 2.9844 45.168 6.0547 67.77 9.0156 22.602 2.9453 45.207 5.7461 67.805 8.7031 25.52 3.3438 51.039 6.668 76.52 10.266 6.082 0.83984 11.414 0.13281 16.793-2.9531 5.9453-3.4141 12.355-5.9961 18.484-9.1016 1.4609-0.74609 3.4336-0.89063 4.3398-3.1758-83.441-13.25-166.76-26.48-250.97-39.855 14.465-25.051 28.367-48.93 42.043-72.93z" fill-rule="evenodd"/>
  <path d="m230.96 435.34c30.727-55.227 61.188-109.98 91.629-164.69 81.465 24.27 162.54 48.418 244.95 72.973-2.043-4.793-3.7734-8.3047-5.0352-11.977-1.457-4.1875-3.9258-6.4961-8.3555-7.9023-64.98-20.613-129.89-41.445-194.82-62.203-13.066-4.1836-26.188-8.1602-39.188-12.504-2.6953-0.90234-4.0156-0.59375-4.9492 1.9609-0.26172 0.72266-0.75 1.3711-1.125 2.0625-35.758 65.352-71.504 130.71-107.23 196.07-0.90625 1.6562-2.1836 3.1875-2.4141 5.3945 5.8242 1.4727 11.766 1.2617 17.602 1.8125 15.859 1.5078 31.73 2.832 47.594 4.1992 16.453 1.4219 32.906 2.793 49.363 4.207 15.863 1.3477 31.734 2.7266 47.605 4.0898 16.066 1.3672 32.133 2.7148 48.195 4.1055 11.355 0.97266 22.73 1.9492 34.082 2.9844 3.2305 0.29687 6.1055-0.33203 9.0117-1.8555 6.2539-3.2422 12.691-6.1328 19-9.2852 1.0234-0.50391 2.9219-0.45312 2.4883-2.9102-82.496-8.8008-165.09-17.625-248.4-26.535z" fill-rule="evenodd"/>
  <path d="m181.79 471.46c-0.26953-1.7812 0.3125-2.3594 0.68359-3.0352 42.312-78.746 84.605-157.49 126.91-236.23 2.3867-4.4336 2.418-4.4141 7.543-2.6641 76.57 26.117 153.12 52.254 229.72 78.281 1.7148 0.58203 3.4102 2.0039 5.957 1.1523-1.6562-3.8711-3.5039-7.5039-4.7383-11.328-1.1484-3.6055-3.4766-5.2031-6.8828-6.418-26.375-9.3906-52.695-18.977-79.031-28.48-50.293-18.156-100.59-36.293-150.9-54.438-4.5977-1.6523-4.6328-1.6562-6.9609 2.7227-5.1445 9.6992-10.258 19.422-15.395 29.125-42.551 80.391-85.098 160.79-127.63 241.18-1.0703 2.0234-2.043 4.082-3.3281 6.6641 2.6445 0.26172 4.7305 0.53906 6.8281 0.66016 8.6406 0.47656 17.289 0.91406 25.934 1.3438 34.188 1.6797 68.375 3.293 102.56 5.0469 34.578 1.7734 69.148 3.6641 103.72 5.5703 4.0078 0.22266 7.6719-0.20703 11.305-2.2188 5.125-2.8555 10.512-5.2344 15.77-7.8359 0.94531-0.46875 2.5195-0.46484 1.9727-2.4688-81.352-5.6523-162.81-10.906-244.03-16.625z" fill-rule="evenodd"/>
  <path d="m140.68 497.05c52.785-101.37 105.62-202.71 158.43-304.06 2.5938-4.9609 2.6094-4.9688 7.707-3.0352 75.645 28.711 151.28 57.434 226.94 86.066 1.4727 0.55469 2.957 2.1172 5.0352 0.98047-1.4609-3.4961-3-6.8711-4.2656-10.344-1.2148-3.3555-3.3281-5.2852-6.7461-6.6406-55.754-22.023-111.45-44.184-167.16-66.328-20.027-7.9531-40.059-15.875-60.02-23.992-2.9531-1.2031-4.7617-1.2812-5.7773 2.0664-0.22266 0.73828-0.71875 1.3945-1.0742 2.0898-19.086 37.152-38.176 74.301-57.25 111.45-36.52 71.16-73.02 142.34-109.61 213.47-1.6914 3.2812-2.5859 6.4062-1.9922 10.098 0.30859 1.9336 0.84375 2.7539 2.8438 2.7773 3.5391 0.035156 7.0781 0.32422 10.617 0.41406 38.355 1.082 76.715 2.1016 115.07 3.207 34.809 1.0039 69.629 1.8359 104.43 3.2969 8.2695 0.35156 14.656-2.8672 21.23-7.3398-80.16-2.9609-160.32-5.9375-240.5-8.9141 0.089844-2.3242 1.2891-3.7305 2.082-5.2656z" fill-rule="evenodd"/>
  <path d="m289.53 156.23c2.7617-5.4609 2.7656-5.4531 8.4688-3.0898 74.723 30.992 149.45 61.98 224.16 92.977 1.0234 0.42188 1.9648 1.3672 3.4141 0.18359-1.2422-2.9531-2.7773-5.8984-3.7305-9.0234-1.1523-3.7734-3.6953-5.5391-7.1562-7.0273-73.574-31.703-147.1-63.504-220.64-95.285-6.4453-2.7812-6.4453-2.7812-9.5859 3.5117-52.438 105.06-104.83 210.15-157.43 315.13-3.625 7.2305-6.5625 14.094-4.5195 22.328 0.54688 2.2188 0.085937 4.6875 0.085937 7.5312 2.5039-0.875 2.6055-2.4883 3.168-3.6055 54.617-107.85 109.19-215.75 163.76-323.63z" fill-rule="evenodd"/>
  <path d="m513.82 219.07c-1.7188-4.0938-3.0234-6.7383-3.9375-9.5078-1.2617-3.8125-3.7305-5.8789-7.4219-7.5898-72.027-33.246-143.99-66.656-215.98-100.03-1.7734-0.82422-3.5391-1.6914-5.3359-2.4766-1.1992-0.51953-2.2617-0.44141-2.9102 0.95312-0.49219 1.0625-1.1133 2.0664-1.6289 3.1211-51.953 106.79-103.89 213.56-155.83 320.34-0.84375 1.7461-1.7578 3.4375-1.6797 5.5547 0.19141 5.1875 0.63281 10.32 2.3125 15.617 54.012-109.62 108.02-219.23 162.14-329.07 76.535 34.27 152.77 68.398 230.27 103.09z" fill-rule="evenodd"/>
  <path d="m593.07 402.8c-1.2773-3-1.9531-6.0977-6.1758-6.957-14.41-2.9414-28.734-6.2734-43.082-9.5039-42.844-9.6641-85.688-19.383-128.54-29.035-23.91-5.3867-47.859-10.625-71.746-16.141-2.6367-0.60937-3.8242-0.17969-5.1172 2.0781-4.6523 8.1797-9.5156 16.234-14.488 24.664 2.0664 1.1914 3.8203 1.3984 5.5547 1.7422 17.539 3.3203 35.078 6.6758 52.617 10.035 29.875 5.7109 59.742 11.418 89.617 17.141 29.863 5.7188 59.754 11.375 89.594 17.219 14.09 2.7734 14.051 2.9531 26.672-3.2188 0.87891-0.42578 1.7734-0.81641 2.6484-1.2617 4.4023-2.1797 4.3984-2.1797 2.4414-6.7617z" fill-rule="evenodd"/>
  <path d="m388.32 137.3c37.477 17.902 74.938 35.844 113.68 54.383-1.2031-2.8711-2.0117-4.4023-2.4961-6.0312-1.7266-5.7891-5.3945-9.2109-10.961-11.922-54.105-26.324-108.07-52.965-162.06-79.527-17.051-8.3906-34.082-16.812-51.133-25.211-4.1562-2.043-4.1602-2.0156-6.2617 2.3359-0.17188 0.35156-0.35938 0.69922-0.52734 1.0547-49.777 104.8-99.496 209.61-149.43 314.33-3.668 7.7031-1.75 14.922-0.40625 22.543 52.168-108.55 104.34-217.12 156.59-325.85 38.031 18.141 75.523 36 113 53.895z" fill-rule="evenodd"/>
  <path d="m184 230.82c27.156-57.824 54.297-115.66 81.453-173.49 2.1094-4.5039 2.1523-4.4922 6.5898-2.2852 0.69922 0.34766 1.4219 0.67578 2.1172 1.0312 67.715 34.223 135.43 68.453 203.13 102.67 3.9883 2.0117 7.9805 3.9922 11.961 5.9883-1.0859-5.0586-2.0625-9.3867-6.9844-11.906-62.984-32.27-125.87-64.727-188.79-97.141-8.707-4.4922-17.438-8.9414-26.09-13.539-2.1211-1.1328-3.5117-1.1328-4.8828 1.0312-1.8867 2.9609-4.2852 5.5352-5.7969 8.8242-12.449 27.066-25.02 54.062-37.566 81.082-34.332 73.941-68.664 147.88-103 221.82-2.3359 5.0391-2.3867 14.906 0.027344 20.184 0.57031-1.1523 1.1094-2.1914 1.6016-3.2539 22.082-46.996 44.16-94.004 66.23-141.02z" fill-rule="evenodd"/>
  <path d="m224.37 91.867c-4.8594 6.6133-10.938 12.348-14.41 19.988-31.762 69.887-63.492 139.8-95.484 209.59-3.3594 7.3242-2.1914 14.195-1.4453 22.262 9.6562-17.355 118.65-256.38 118.96-260.86-3.2227 2.5469-5.3281 5.9102-7.6172 9.0234z" fill-rule="evenodd"/>
  <path d="m188.18 138.43c-3.0469 2.4766-5.1016 5.8633-7.4609 8.9141-4.6406 6.0273-9.5586 11.777-12.719 18.949-18.445 41.91-37.066 83.754-55.938 125.48-3.0703 6.793-2.1992 13.172-0.38672 20.059 25.883-57.52 51.777-115.04 77.66-172.56-0.37891-0.27734-0.76562-0.55859-1.1562-0.84375z" fill-rule="evenodd"/>
  <path d="m133.47 209.57c-7.6289 17.602-15.004 35.32-23.102 52.703-2.9609 6.3438-3.1523 12.266-1.4062 19.465 4.4688-6.5977 41.227-90.652 41.25-95.066-5.7148 7.5312-12.867 13.969-16.742 22.898z" fill-rule="evenodd"/>
  <path d="m117.18 228.13c-3.4609 4.3945-6.9102 8.8047-10.383 13.188-0.62109 0.78906-1.1758 1.6133-1.1016 2.6328 0.24219 3.4883 0.54688 6.9844 0.83594 10.473 0.34766 0.027344 0.68359 0.0625 1.0312 0.10156 3.6562-8.6016 7.3125-17.199 10.965-25.793-0.45313-0.20312-0.90234-0.40625-1.3477-0.60156z" fill-rule="evenodd"/>
  <use x="70" y="644" xlink:href="#u"/>
  <use x="90.550781" y="644" xlink:href="#b"/>
  <use x="104.359375" y="644" xlink:href="#a"/>
  <use x="123.347656" y="644" xlink:href="#d"/>
  <use x="142.242188" y="644" xlink:href="#c"/>
  <use x="155.628906" y="644" xlink:href="#a"/>
  <use x="174.617188" y="644" xlink:href="#g"/>
  <use x="204.410156" y="644" xlink:href="#m"/>
  <use x="224.453125" y="644" xlink:href="#l"/>
  <use x="252.453125" y="644" xlink:href="#k"/>
  <use x="271.578125" y="644" xlink:href="#b"/>
  <use x="285.386719" y="644" xlink:href="#j"/>
  <use x="294.984375" y="644" xlink:href="#a"/>
  <use x="313.976562" y="644" xlink:href="#g"/>
  <use x="334.015625" y="644" xlink:href="#b"/>
  <use x="347.828125" y="644" xlink:href="#j"/>
  <use x="357.421875" y="644" xlink:href="#i"/>
  <use x="374.023438" y="644" xlink:href="#h"/>
  <use x="403.703125" y="644" xlink:href="#t"/>
  <use x="423.867188" y="644" xlink:href="#d"/>
  <use x="442.765625" y="644" xlink:href="#f"/>
  <use x="462.695312" y="644" xlink:href="#c"/>
  <use x="476.082031" y="644" xlink:href="#d"/>
  <use x="494.976562" y="644" xlink:href="#f"/>
  <use x="514.910156" y="644" xlink:href="#d"/>
  <use x="70" y="672" xlink:href="#s"/>
  <use x="82.183594" y="672" xlink:href="#b"/>
  <use x="95.992188" y="672" xlink:href="#e"/>
  <use x="115.226562" y="672" xlink:href="#r"/>
  <use x="154.152344" y="672" xlink:href="#c"/>
  <use x="167.535156" y="672" xlink:href="#h"/>
  <use x="187.46875" y="672" xlink:href="#a"/>
  <use x="216.207031" y="672" xlink:href="#q"/>
  <use x="239.640625" y="672" xlink:href="#e"/>
  <use x="258.878906" y="672" xlink:href="#p"/>
  <use x="278.8125" y="672" xlink:href="#f"/>
  <use x="308.492188" y="672" xlink:href="#o"/>
  <use x="329.015625" y="672" xlink:href="#b"/>
  <use x="342.820312" y="672" xlink:href="#e"/>
  <use x="362.058594" y="672" xlink:href="#n"/>
  <use x="371.65625" y="672" xlink:href="#a"/>
  <use x="390.648438" y="672" xlink:href="#i"/>
  <use x="407.242188" y="672" xlink:href="#c"/>
 </g>
</svg>
